<svg width="27" height="21" viewBox="0 0 27 21"  xmlns="http://www.w3.org/2000/svg">
<path d="M25.7727 0H0.954545C0.426562 0 0 0.426562 0 0.954545V20.0455C0 20.5734 0.426562 21 0.954545 21H25.7727C26.3007 21 26.7273 20.5734 26.7273 20.0455V0.954545C26.7273 0.426562 26.3007 0 25.7727 0ZM23.3625 3.24844L13.9513 10.5716C13.7186 10.7536 13.3935 10.7536 13.1608 10.5716L3.74659 3.24844C3.7111 3.22105 3.68507 3.18324 3.67215 3.14032C3.65923 3.0974 3.66006 3.0515 3.67453 3.00908C3.689 2.96665 3.71639 2.92981 3.75285 2.90373C3.78931 2.87765 3.83301 2.86363 3.87784 2.86364H23.2312C23.2761 2.86363 23.3198 2.87765 23.3562 2.90373C23.3927 2.92981 23.4201 2.96665 23.4346 3.00908C23.449 3.0515 23.4499 3.0974 23.4369 3.14032C23.424 3.18324 23.398 3.22105 23.3625 3.24844V3.24844Z" />
</svg>
