<svg width="22" height="21" viewBox="0 0 22 21" fill="none" xmlns="http://www.w3.org/2000/svg">
<path fill-rule="evenodd" clip-rule="evenodd" d="M10.7656 0C4.8176 0 0 4.8176 0 10.7656C0 15.5294 3.08165 19.553 7.36097 20.9794C7.89925 21.0736 8.1011 20.7507 8.1011 20.4681C8.1011 20.2124 8.08765 19.3646 8.08765 18.463C5.38279 18.9609 4.68303 17.8036 4.46772 17.198C4.34661 16.8885 3.82178 15.9331 3.36425 15.6774C2.98745 15.4755 2.44917 14.9776 3.35079 14.9642C4.19858 14.9507 4.80414 15.7447 5.006 16.0676C5.9749 17.6959 7.52245 17.2384 8.14147 16.9558C8.23567 16.256 8.51827 15.785 8.82778 15.5159C6.43244 15.2468 3.92944 14.3182 3.92944 10.2004C3.92944 9.02963 4.34661 8.06073 5.03291 7.30714C4.92526 7.038 4.54846 5.93453 5.14057 4.45426C5.14057 4.45426 6.04218 4.17166 8.1011 5.55773C8.96235 5.31551 9.87742 5.19439 10.7925 5.19439C11.7076 5.19439 12.6226 5.31551 13.4839 5.55773C15.5428 4.15821 16.4444 4.45426 16.4444 4.45426C17.0365 5.93453 16.6597 7.038 16.5521 7.30714C17.2384 8.06073 17.6556 9.01618 17.6556 10.2004C17.6556 14.3317 15.1391 15.2468 12.7438 15.5159C13.134 15.8523 13.4704 16.4983 13.4704 17.5075C13.4704 18.9474 13.457 20.1047 13.457 20.4681C13.457 20.7507 13.6588 21.0871 14.1971 20.9794C16.3342 20.2579 18.1913 18.8843 19.5069 17.0521C20.8226 15.2199 21.5305 13.0212 21.5312 10.7656C21.5312 4.8176 16.7136 0 10.7656 0Z" />
</svg>
