<svg viewBox="0 0 864 774" fill="none" xmlns="http://www.w3.org/2000/svg">
<path d="M843 158.601C829.596 127.564 810.269 99.4396 786.1 75.8007C761.913 52.0913 733.396 33.2498 702.1 20.3007C669.648 6.82001 634.841 -0.0801786 599.7 0.000702887C550.4 0.000702887 502.3 13.5007 460.5 39.0007C450.5 45.1007 441 51.8007 432 59.1007C423 51.8007 413.5 45.1007 403.5 39.0007C361.7 13.5007 313.6 0.000702887 264.3 0.000702887C228.8 0.000702887 194.4 6.80071 161.9 20.3007C130.5 33.3007 102.2 52.0007 77.9 75.8007C53.6997 99.4129 34.3678 127.544 21 158.601C7.1 190.901 0 225.201 0 260.501C0 293.801 6.8 328.501 20.3 363.801C31.6 393.301 47.8 423.901 68.5 454.801C101.3 503.701 146.4 554.701 202.4 606.401C295.2 692.101 387.1 751.301 391 753.701L414.7 768.901C425.2 775.601 438.7 775.601 449.2 768.901L472.9 753.701C476.8 751.201 568.6 692.101 661.5 606.401C717.5 554.701 762.6 503.701 795.4 454.801C816.1 423.901 832.4 393.301 843.6 363.801C857.1 328.501 863.9 293.801 863.9 260.501C864 225.201 856.9 190.901 843 158.601V158.601Z" fill="#FC0000"/>
</svg>
