<svg width="21" height="21" viewBox="0 0 21 21" fill="none" xmlns="http://www.w3.org/2000/svg">
<path fill-rule="evenodd" clip-rule="evenodd" d="M2.58092e-07 1.74364C2.58092e-07 1.2812 0.183704 0.837698 0.5107 0.510702C0.837696 0.183707 1.2812 2.32452e-06 1.74364 2.32452e-06H19.125C19.3542 -0.000371971 19.5812 0.0444593 19.793 0.131929C20.0048 0.2194 20.1973 0.347791 20.3594 0.509752C20.5216 0.671714 20.6502 0.864065 20.7379 1.07579C20.8256 1.28752 20.8707 1.51447 20.8705 1.74364V19.125C20.8708 19.3542 20.8258 19.5812 20.7383 19.7931C20.6507 20.0049 20.5222 20.1974 20.3602 20.3595C20.1981 20.5216 20.0057 20.6502 19.7939 20.7379C19.5822 20.8256 19.3552 20.8707 19.1259 20.8705H1.74364C1.51458 20.8705 1.28777 20.8254 1.07616 20.7377C0.864548 20.65 0.672289 20.5215 0.510365 20.3595C0.34844 20.1975 0.220025 20.0052 0.132454 19.7935C0.0448842 19.5818 -0.000124365 19.355 2.58092e-07 19.1259V1.74364ZM8.26094 7.95737H11.087V9.37656C11.4949 8.56072 12.5384 7.82645 14.1066 7.82645C17.1129 7.82645 17.8253 9.45151 17.8253 12.4331V17.9563H14.783V13.1124C14.783 11.4143 14.3751 10.4561 13.3391 10.4561C11.9019 10.4561 11.3042 11.4892 11.3042 13.1124V17.9563H8.26094V7.95737ZM3.0433 17.8263H6.08661V7.82645H3.0433V17.8253V17.8263ZM6.52204 4.56496C6.52778 4.82553 6.48141 5.08462 6.38566 5.32703C6.28991 5.56944 6.14671 5.79028 5.96445 5.97659C5.78219 6.16291 5.56456 6.31094 5.32432 6.41201C5.08407 6.51307 4.82606 6.56513 4.56543 6.56513C4.3048 6.56513 4.04679 6.51307 3.80654 6.41201C3.5663 6.31094 3.34867 6.16291 3.16641 5.97659C2.98415 5.79028 2.84095 5.56944 2.7452 5.32703C2.64945 5.08462 2.60308 4.82553 2.60882 4.56496C2.62008 4.05349 2.83117 3.56677 3.19688 3.20902C3.56259 2.85128 4.05384 2.65096 4.56543 2.65096C5.07702 2.65096 5.56827 2.85128 5.93398 3.20902C6.29969 3.56677 6.51078 4.05349 6.52204 4.56496V4.56496Z" />
</svg>
