<svg viewBox="0 0 31 31" fill="none" xmlns="http://www.w3.org/2000/svg">
<path d="M9.57908 8.90404C9.57931 16.9736 16.1571 23.5031 24.258 23.5031C25.3139 23.5031 26.3428 23.3929 27.3324 23.1821L27.3341 23.1818C27.5309 23.1391 27.7359 23.1554 27.9234 23.2286C28.111 23.3018 28.2729 23.4286 28.3888 23.5933L28.3909 23.5962C28.5089 23.7612 28.5691 23.9606 28.562 24.1633C28.555 24.3661 28.4812 24.5608 28.352 24.7172L28.3498 24.7199C26.8771 26.5289 25.0193 27.9864 22.9118 28.9863C20.8043 29.9861 18.5003 30.503 16.1676 30.4993H16.1668C7.50801 30.4993 0.5 23.5243 0.5 14.9371C0.5 8.47464 4.46653 2.92813 10.12 0.576595L10.12 0.576602L10.1226 0.575496C10.3134 0.494851 10.5252 0.478299 10.7263 0.528326C10.9273 0.578354 11.1067 0.692259 11.2374 0.852933L11.2374 0.852937L11.2392 0.855045C11.3647 1.00764 11.4417 1.19439 11.46 1.39116C11.4784 1.58793 11.4373 1.78568 11.3421 1.95886L11.3411 1.96057C10.1809 4.09073 9.575 6.47843 9.57908 8.90404ZM9.57908 8.90404C9.57908 8.9039 9.57908 8.90376 9.57908 8.90362H10.0791L9.57908 8.90447C9.57908 8.90433 9.57908 8.90419 9.57908 8.90404ZM21.9876 8.50778L21.9877 8.50817C22.3727 9.6609 23.2764 10.5645 24.4291 10.9495L24.4295 10.9496L26.455 11.6242L24.4295 12.2988L24.4294 12.2988C23.8608 12.4883 23.3441 12.8076 22.9202 13.2314C22.4964 13.6552 22.1771 14.172 21.9876 14.7406L21.9876 14.7407L21.313 16.7662L20.6385 14.7407L20.6384 14.7406C20.449 14.172 20.1297 13.6552 19.7059 13.2314C19.282 12.8076 18.7653 12.4883 18.1966 12.2988L18.1966 12.2988L16.1711 11.6242L18.1966 10.9496L18.1966 10.9496C18.7653 10.7602 19.282 10.4409 19.7059 10.017C20.1297 9.59321 20.449 9.07649 20.6384 8.50783L20.6385 8.50778L21.313 6.4823L21.9876 8.50778ZM27.1258 0.976181L27.4165 1.84817L24.942 3.10874C25.6124 2.88592 26.1375 2.36085 26.3603 1.69046L26.8346 1.84876L26.8347 1.84848C26.8347 1.84837 26.8348 1.84827 26.8348 1.84817L27.1258 0.976181ZM24.2272 3.87407L25.0997 3.58322H29.1516L30.0241 3.87407L29.1514 4.16496C29.1513 4.16499 29.1512 4.16502 29.1511 4.16506C28.7471 4.2995 28.38 4.52627 28.0789 4.82735C27.7778 5.12851 27.551 5.49573 27.4165 5.89985L27.1257 6.77252L26.8348 5.89985C26.7003 5.49573 26.4735 5.12851 26.1724 4.82735C25.8713 4.52627 25.5042 4.2995 25.1002 4.16506C25.1001 4.16502 25.1 4.16499 25.0999 4.16496L24.2272 3.87407ZM27.4166 1.84858C27.6892 2.66827 28.3315 3.3105 29.1511 3.58308L27.4166 1.84858Z" fill="#020733" stroke="white"/>
</svg>
