<svg width="568" height="848" viewBox="0 0 568 848"  xmlns="http://www.w3.org/2000/svg">
<path d="M567.73 632.519V677.879C567.594 680.308 566.89 682.671 565.674 684.778C564.458 686.885 562.765 688.677 560.73 690.009L290.86 845.809C288.689 846.904 286.291 847.474 283.86 847.474C281.429 847.474 279.031 846.904 276.86 845.809L7 689.999C4.96528 688.667 3.27188 686.875 2.05608 684.768C0.84028 682.661 0.136028 680.298 0 677.869L0 632.519C0 625.849 4.72 623.119 10.5 626.449L276.86 780.239C279.031 781.334 281.429 781.904 283.86 781.904C286.291 781.904 288.689 781.334 290.86 780.239L557.23 626.449C563 623.119 567.73 625.849 567.73 632.519ZM557.22 167.599L518 190.249C515.829 191.343 513.431 191.913 511 191.913C508.569 191.913 506.171 191.343 504 190.249L404.45 132.789C402.279 131.695 399.881 131.125 397.45 131.125C395.019 131.125 392.621 131.695 390.45 132.789L290.91 190.279C288.738 191.372 286.341 191.942 283.91 191.942C281.479 191.942 279.082 191.372 276.91 190.279L177.37 132.789C175.199 131.695 172.801 131.125 170.37 131.125C167.939 131.125 165.541 131.695 163.37 132.789L63.77 190.239C61.5987 191.333 59.2012 191.903 56.77 191.903C54.3388 191.903 51.9413 191.333 49.77 190.239L10.51 167.599C4.73 164.269 4.73 158.809 10.51 155.479L276.86 1.66948C279.03 0.571884 281.428 0 283.86 0C286.292 0 288.69 0.571884 290.86 1.66948L557.22 155.479C563 158.809 563 164.269 557.22 167.599ZM330.13 89.9095L290.86 67.2395C288.689 66.1434 286.292 65.5724 283.86 65.5724C281.428 65.5724 279.031 66.1434 276.86 67.2395L237.59 89.9095C231.82 93.2395 231.82 98.6995 237.59 102.029L276.87 124.699C279.041 125.796 281.438 126.367 283.87 126.367C286.302 126.367 288.699 125.796 290.87 124.699L330.13 101.999C335.91 98.6995 335.91 93.2395 330.13 89.9095ZM276.86 649.149L10.5 495.369C4.72 491.999 0 494.769 0 501.429V546.799C0.135216 549.227 0.839201 551.589 2.05515 553.694C3.27109 555.799 4.96494 557.589 7 558.919L276.86 714.729C279.032 715.822 281.429 716.392 283.86 716.392C286.291 716.392 288.688 715.822 290.86 714.729L560.73 558.889C562.764 557.558 564.457 555.768 565.673 553.663C566.889 551.558 567.593 549.197 567.73 546.769V501.429C567.73 494.769 563 492.039 557.23 495.369L290.86 649.149C288.691 650.249 286.292 650.823 283.86 650.823C281.428 650.823 279.029 650.249 276.86 649.149V649.149ZM518 255.809L557.27 233.139C563.04 229.809 567.77 232.539 567.77 239.209V419.729C567.7 420.943 567.348 422.123 566.74 423.175C566.132 424.228 565.286 425.123 564.27 425.789L518 452.499C515.829 453.594 513.431 454.164 511 454.164C508.569 454.164 506.171 453.594 504 452.499L404.41 394.999C402.376 393.668 400.683 391.878 399.467 389.773C398.251 387.668 397.547 385.307 397.41 382.879V206.429C397.41 199.769 402.14 197.039 407.91 200.369L503.91 255.809C506.091 256.924 508.506 257.505 510.955 257.505C513.404 257.505 515.819 256.924 518 255.809V255.809ZM454.22 304.749V350.109C454.356 352.538 455.06 354.901 456.276 357.008C457.492 359.115 459.185 360.907 461.22 362.239L500.5 384.909C506.27 388.239 511 385.509 511 378.839V333.509C510.864 331.081 510.16 328.718 508.944 326.611C507.728 324.504 506.035 322.712 504 321.379L464.73 298.689C458.91 295.349 454.18 298.079 454.18 304.749H454.22ZM340.61 346.069V239.209C340.61 232.539 335.89 229.809 330.12 233.139L290.84 255.809C288.671 256.911 286.273 257.485 283.84 257.485C281.407 257.485 279.009 256.911 276.84 255.809L237.56 233.139C231.79 229.809 227.06 232.539 227.06 239.209V346.069C227.06 352.739 231.79 355.469 237.56 352.129L276.8 329.469C278.972 328.376 281.369 327.807 283.8 327.807C286.231 327.807 288.628 328.376 290.8 329.469L330.04 352.129C335.88 355.469 340.61 352.739 340.61 346.069ZM290.86 394.999L443.68 483.209C449.46 486.539 449.46 491.999 443.68 495.329L290.87 583.579C288.698 584.672 286.301 585.242 283.87 585.242C281.439 585.242 279.042 584.672 276.87 583.579L124.05 495.339C118.27 492.009 118.27 486.549 124.05 483.219L276.87 394.999C279.038 393.9 281.434 393.326 283.865 393.326C286.296 393.326 288.692 393.9 290.86 394.999V394.999ZM237.59 495.339L276.86 517.999C279.03 519.097 281.428 519.669 283.86 519.669C286.292 519.669 288.69 519.097 290.86 517.999L330.13 495.309C335.9 491.979 335.9 486.519 330.13 483.189L290.85 460.519C288.679 459.423 286.282 458.852 283.85 458.852C281.418 458.852 279.021 459.423 276.85 460.519L237.57 483.189C231.82 486.549 231.81 491.999 237.59 495.339ZM49.77 452.499L3.5 425.789C2.48384 425.123 1.63797 424.228 1.03017 423.175C0.422376 422.123 0.0695587 420.943 0 419.729L0 239.209C0 232.539 4.72 229.809 10.5 233.139L49.77 255.809C51.9395 256.909 54.3376 257.483 56.77 257.483C59.2024 257.483 61.6005 256.909 63.77 255.809L159.77 200.369C165.54 197.039 170.27 199.769 170.27 206.429V382.889C170.133 385.317 169.429 387.678 168.213 389.783C166.997 391.888 165.304 393.678 163.27 395.009L63.77 452.499C61.5989 453.594 59.2014 454.164 56.77 454.164C54.3386 454.164 51.9411 453.594 49.77 452.499V452.499ZM67.27 384.909L106.54 362.239C108.575 360.907 110.269 359.115 111.485 357.008C112.701 354.901 113.405 352.538 113.54 350.109V304.749C113.54 298.079 108.81 295.349 103.03 298.689L63.77 321.379C61.7353 322.712 60.0419 324.504 58.8261 326.611C57.6103 328.718 56.906 331.081 56.77 333.509V378.839C56.77 385.509 61.5 388.239 67.27 384.909V384.909Z"/>
</svg>
