<svg width="31" height="31" viewBox="0 0 31 31" fill="none" xmlns="http://www.w3.org/2000/svg">
<path d="M15.7878 4.37817C15.7114 4.45449 15.6079 4.49737 15.5 4.49737C15.3921 4.49737 15.2886 4.45449 15.2122 4.37817C15.1359 4.30185 15.093 4.19834 15.093 4.0904V0.906963C15.093 0.799029 15.1359 0.695516 15.2122 0.619197C15.2886 0.542877 15.3921 0.5 15.5 0.5C15.6079 0.5 15.7114 0.542877 15.7878 0.619197C15.8641 0.695516 15.907 0.799029 15.907 0.906963V4.0904C15.907 4.19834 15.8641 4.30185 15.7878 4.37817ZM15.2122 26.6218C15.2886 26.5455 15.3921 26.5026 15.5 26.5026C15.6079 26.5026 15.7114 26.5455 15.7878 26.6218C15.8641 26.6981 15.907 26.8017 15.907 26.9096V30.093C15.907 30.201 15.8641 30.3045 15.7878 30.3808C15.7114 30.4571 15.6079 30.5 15.5 30.5C15.3921 30.5 15.2886 30.4571 15.2122 30.3808C15.1359 30.3045 15.093 30.201 15.093 30.093V26.9096C15.093 26.8017 15.1359 26.6981 15.2122 26.6218ZM7.3988 7.78975C7.30155 7.79351 7.20636 7.76229 7.13035 7.70206L4.9138 5.48551C4.85357 5.4095 4.82235 5.3143 4.8261 5.21706C4.83006 5.11463 4.87252 5.01748 4.945 4.945C5.01748 4.87252 5.11463 4.83006 5.21706 4.8261C5.3143 4.82235 5.4095 4.85357 5.48551 4.9138L7.70206 7.13035C7.76229 7.20636 7.79351 7.30155 7.78975 7.3988C7.7858 7.50122 7.74334 7.59838 7.67086 7.67086C7.59838 7.74334 7.50122 7.7858 7.3988 7.78975ZM23.6012 23.2102C23.6984 23.2065 23.7936 23.2377 23.8696 23.2979L26.0862 25.5145C26.1464 25.5905 26.1777 25.6857 26.1739 25.7829C26.1699 25.8854 26.1275 25.9825 26.055 26.055C25.9825 26.1275 25.8854 26.1699 25.7829 26.1739C25.6857 26.1777 25.5905 26.1464 25.5145 26.0862L23.2979 23.8696C23.2377 23.7936 23.2065 23.6984 23.2102 23.6012C23.2142 23.4988 23.2567 23.4016 23.3291 23.3291C23.4016 23.2567 23.4988 23.2142 23.6012 23.2102ZM4.37817 15.2122C4.45449 15.2886 4.49737 15.3921 4.49737 15.5C4.49737 15.6079 4.45449 15.7114 4.37817 15.7878C4.30185 15.8641 4.19834 15.907 4.0904 15.907H0.906963C0.799029 15.907 0.695516 15.8641 0.619197 15.7878C0.542877 15.7114 0.5 15.6079 0.5 15.5C0.5 15.3921 0.542877 15.2886 0.619197 15.2122C0.695516 15.1359 0.799029 15.093 0.906963 15.093H4.0904C4.19834 15.093 4.30185 15.1359 4.37817 15.2122ZM26.9096 15.093H30.093C30.201 15.093 30.3045 15.1359 30.3808 15.2122C30.4571 15.2886 30.5 15.3921 30.5 15.5C30.5 15.6079 30.4571 15.7114 30.3808 15.7878C30.3045 15.8641 30.201 15.907 30.093 15.907H26.9096C26.8017 15.907 26.6981 15.8641 26.6218 15.7878C26.5455 15.7114 26.5026 15.6079 26.5026 15.5C26.5026 15.3921 26.5455 15.2886 26.6218 15.2122C26.6981 15.1359 26.8017 15.093 26.9096 15.093ZM4.8261 25.7829C4.82235 25.6857 4.85356 25.5905 4.91379 25.5145L7.13035 23.2979C7.20636 23.2377 7.30155 23.2065 7.3988 23.2102C7.50122 23.2142 7.59838 23.2567 7.67086 23.3291C7.74334 23.4016 7.7858 23.4988 7.78975 23.6012C7.79351 23.6984 7.76229 23.7936 7.70206 23.8697L5.48551 26.0862C5.4095 26.1464 5.3143 26.1777 5.21706 26.1739C5.11463 26.1699 5.01748 26.1275 4.945 26.055C4.87252 25.9825 4.83006 25.8854 4.8261 25.7829ZM26.0862 5.48551L23.8697 7.70206C23.7936 7.76229 23.6984 7.79351 23.6012 7.78975C23.4988 7.7858 23.4016 7.74334 23.3291 7.67086C23.2567 7.59838 23.2142 7.50122 23.2102 7.3988C23.2065 7.30155 23.2377 7.20636 23.2979 7.13035L25.5145 4.91379C25.5905 4.85356 25.6857 4.82235 25.7829 4.8261C25.8854 4.83006 25.9825 4.87252 26.055 4.945C26.1275 5.01748 26.1699 5.11463 26.1739 5.21706C26.1777 5.3143 26.1464 5.4095 26.0862 5.48551ZM24.0696 15.5C24.0696 20.2329 20.2329 24.0696 15.5 24.0696C10.7671 24.0696 6.93037 20.2329 6.93037 15.5C6.93037 10.7671 10.7671 6.93037 15.5 6.93037C20.2329 6.93037 24.0696 10.7671 24.0696 15.5Z" fill="#FFD600" stroke="white"/>
</svg>
