<svg width="26" height="21" viewBox="0 0 26 21" fill="none" xmlns="http://www.w3.org/2000/svg">
<path d="M25.8323 2.49098C24.8823 2.91193 23.8618 3.19635 22.789 3.32491C23.8959 2.66254 24.7241 1.62005 25.119 0.391954C24.0789 1.00971 22.9407 1.44453 21.7537 1.67754C20.9555 0.825258 19.8982 0.260353 18.746 0.0705279C17.5938 -0.119297 16.4112 0.0765775 15.3818 0.627742C14.3523 1.17891 13.5337 2.05452 13.0528 3.11865C12.572 4.18277 12.456 5.37587 12.7227 6.5127C10.6154 6.40689 8.55383 5.85916 6.67187 4.90504C4.78991 3.95093 3.12959 2.61176 1.79868 0.974449C1.34361 1.75945 1.08194 2.6696 1.08194 3.63891C1.08143 4.51151 1.29632 5.37074 1.70753 6.14037C2.11874 6.91001 2.71356 7.56624 3.43922 8.05085C2.59765 8.02408 1.77465 7.79668 1.03871 7.38758V7.45584C1.03862 8.6797 1.46196 9.86589 2.2369 10.8132C3.01183 11.7604 4.09063 12.4104 5.29024 12.6528C4.50954 12.8641 3.69104 12.8952 2.89655 12.7438C3.23501 13.7969 3.89429 14.7177 4.78211 15.3775C5.66993 16.0372 6.74183 16.4028 7.84776 16.4231C5.97038 17.8969 3.65184 18.6963 1.26511 18.6928C0.842321 18.6929 0.419893 18.6682 0 18.6188C2.42267 20.1765 5.24284 21.0032 8.12307 21C17.873 21 23.2031 12.9247 23.2031 5.92111C23.2031 5.69357 23.1974 5.46376 23.1872 5.23622C24.2239 4.48645 25.1189 3.55801 25.83 2.4944L25.8323 2.49098V2.49098Z" />
</svg>
